<?xml version="1.0" encoding="UTF-8" standalone="no"?>
<!-- Created with Inkscape (http://www.inkscape.org/) -->

<svg
   width="100mm"
   height="100mm"
   viewBox="0 0 99.999997 100"
   version="1.1"
   id="svg5"
   inkscape:version="1.2 (dc2aedaf03, 2022-05-15)"
   sodipodi:docname="Thanks!.svg"
   xmlns:inkscape="http://www.inkscape.org/namespaces/inkscape"
   xmlns:sodipodi="http://sodipodi.sourceforge.net/DTD/sodipodi-0.dtd"
   xmlns="http://www.w3.org/2000/svg"
   xmlns:svg="http://www.w3.org/2000/svg">
  <sodipodi:namedview
     id="namedview7"
     pagecolor="#ffffff"
     bordercolor="#000000"
     borderopacity="0.25"
     inkscape:showpageshadow="2"
     inkscape:pageopacity="0.0"
     inkscape:pagecheckerboard="0"
     inkscape:deskcolor="#d1d1d1"
     inkscape:document-units="mm"
     showgrid="false"
     inkscape:zoom="2.1537083"
     inkscape:cx="188.97638"
     inkscape:cy="188.97638"
     inkscape:window-width="1920"
     inkscape:window-height="1017"
     inkscape:window-x="-8"
     inkscape:window-y="-8"
     inkscape:window-maximized="1"
     inkscape:current-layer="layer1">
    <inkscape:grid
       type="xygrid"
       id="grid751"
       originx="0"
       originy="0" />
  </sodipodi:namedview>
  <defs
     id="defs2">
    <rect
       x="58.039429"
       y="3.2502079"
       width="211.72783"
       height="145.33073"
       id="rect994" />
    <rect
       x="0.46431541"
       y="0.46431541"
       width="377.95276"
       height="377.95276"
       id="rect988" />
    <rect
       x="0.00390625"
       y="0.00390625"
       width="378.41318"
       height="377.94885"
       id="rect932" />
    <rect
       x="30.180504"
       y="27.394609"
       width="197.79837"
       height="123.04359"
       id="rect818" />
    <rect
       x="1.8572617"
       y="2.7858925"
       width="74.290466"
       height="52.003326"
       id="rect812" />
    <rect
       x="0.46431541"
       y="0"
       width="377.95276"
       height="377.95276"
       id="rect806" />
    <rect
       x="1.3790168"
       y="63.434772"
       width="376.47159"
       height="46.197063"
       id="rect483" />
  </defs>
  <g
     inkscape:label="Layer 1"
     inkscape:groupmode="layer"
     id="layer1"
     transform="translate(76.62162,-29.918921)">
    <text
       xml:space="preserve"
       transform="matrix(0.26458333,0,0,0.26458333,-76.62162,29.918921)"
       id="text481"
       style="font-size:66.6667px;white-space:pre;shape-inside:url(#rect483);fill:none" />
    <text
       xml:space="preserve"
       style="font-size:17.6389px;fill:#000000;stroke-width:0.264583"
       x="-57.466213"
       y="57.831085"
       id="text802"><tspan
         sodipodi:role="line"
         id="tspan800"
         style="font-size:17.6389px;fill:#000000;stroke-width:0.264583"
         x="-57.466213"
         y="57.831085" /></text>
    <text
       xml:space="preserve"
       transform="matrix(0.26458333,0,0,0.26458333,-76.62162,29.918921)"
       id="text804"
       style="font-size:66.6667px;white-space:pre;shape-inside:url(#rect806);fill:#000000" />
    <text
       xml:space="preserve"
       transform="matrix(0.26458333,0,0,0.26458333,-76.62162,29.918921)"
       id="text810"
       style="font-size:66.6667px;white-space:pre;shape-inside:url(#rect812);fill:#000000" />
    <text
       xml:space="preserve"
       transform="matrix(0.26458333,0,0,0.26458333,-76.62162,29.918921)"
       id="text930"
       style="font-size:66.6667px;line-height:0.2;text-align:center;white-space:pre;shape-inside:url(#rect932);fill:#000000" />
    <text
       xml:space="preserve"
       transform="matrix(0.2761926,0,0,0.25931331,-80.499319,61.791909)"
       id="text986"
       style="font-size:66.6667px;text-align:center;writing-mode:lr-tb;white-space:pre;shape-inside:url(#rect988);fill:#000000"
       x="-4.0078125"
       y="0"><tspan
         x="52.983"
         y="59.44925"
         id="tspan1161"><tspan
           style="font-family:'Lucida Calligraphy';-inkscape-font-specification:'Lucida Calligraphy'"
           id="tspan1159">Thanks!</tspan></tspan></text>
    <text
       xml:space="preserve"
       transform="matrix(0.26458333,0,0,0.26458333,-76.62162,29.918921)"
       id="text992"
       style="font-style:normal;font-variant:normal;font-weight:normal;font-stretch:normal;font-size:66.6667px;font-family:'Apex Mk3';-inkscape-font-specification:'Apex Mk3';text-align:center;writing-mode:lr-tb;white-space:pre;shape-inside:url(#rect994);fill:#000000" />
    <path
       sodipodi:type="spiral"
       style="fill:none;fill-rule:evenodd;stroke:#000000;stroke-width:0.264583"
       id="path1065"
       sodipodi:cx="44.57428"
       sodipodi:cy="54.324905"
       sodipodi:expansion="1"
       sodipodi:revolution="3"
       sodipodi:radius="37.391087"
       sodipodi:argument="-17.714636"
       sodipodi:t0="0"
       d="m 44.57428,54.324905 c 0.79152,1.699444 -1.900308,1.905399 -2.824587,1.315559 -2.504738,-1.598431 -1.670511,-5.248871 0.19347,-6.964731 3.334226,-3.069272 8.574251,-1.661287 11.104876,1.702498 3.713793,4.936488 1.669002,11.950964 -3.211526,15.24502 -6.504976,4.390459 -15.346714,1.684968 -19.385165,-4.720554 -5.081978,-8.060696 -1.705413,-18.751737 6.229582,-23.52531 9.610342,-5.781436 22.162021,-1.728489 27.665454,7.73861 6.485605,11.156649 1.753224,25.575594 -9.247638,31.805599 C 42.397816,84.114384 26.107387,78.700661 19.153003,66.16493 11.25099,51.921036 17.347326,33.756266 31.418697,26.079042 47.204649,17.466357 67.245788,24.246193 75.64473,39.853764 c 9.324417,17.327362 1.860437,39.24636 -15.283751,48.366178"
       transform="matrix(0.26458333,0,0,0.26458333,-70.847664,26.110567)" />
    <path
       sodipodi:type="spiral"
       style="fill:none;fill-rule:evenodd;stroke:#000000;stroke-width:0.264583"
       id="path1067"
       sodipodi:cx="302.73364"
       sodipodi:cy="30.644817"
       sodipodi:expansion="1"
       sodipodi:revolution="3"
       sodipodi:radius="33.690876"
       sodipodi:argument="-17.797905"
       sodipodi:t0="0"
       d="m 302.73364,30.644817 c 0.83808,1.466643 -1.56352,1.853306 -2.43765,1.392945 -2.36885,-1.24755 -1.89335,-4.587865 -0.34824,-6.268259 2.76385,-3.005829 7.57448,-2.134272 10.09886,0.696481 3.70464,4.154244 2.39426,10.605911 -1.74119,13.929461 -5.51191,4.429771 -13.65382,2.66308 -17.76006,-2.785905 -5.16729,-6.856993 -2.93662,-16.709721 3.83062,-21.590665 8.19602,-5.911477 19.77014,-3.212912 25.42126,4.875331 6.65965,9.531714 3.49094,22.833403 -5.92004,29.251868 -10.86536,7.410371 -25.89855,3.770129 -33.08247,-6.964756 -8.16283,-12.19766 -4.05013,-28.965012 8.00947,-36.913071 13.52904,-8.9165207 32.03244,-4.330708 40.74367,9.054181 9.67112,14.859764 4.61173,35.1006 -10.09889,44.574274"
       transform="matrix(0.26458333,0,0,0.26458333,-90.380834,39.25553)" />
    <path
       sodipodi:type="spiral"
       style="fill:none;fill-rule:evenodd;stroke:#000000;stroke-width:0.264583"
       id="path1071"
       sodipodi:cx="128.15106"
       sodipodi:cy="59.432373"
       sodipodi:expansion="1"
       sodipodi:revolution="3"
       sodipodi:radius="14.865347"
       sodipodi:argument="-17.026205"
       sodipodi:t0="0"
       d="m 128.15106,59.432373 c -0.18624,0.721681 -1.06469,0.105004 -1.19948,-0.309544 -0.36526,-1.123398 0.8129,-2.033431 1.81857,-2.089419 1.79891,-0.100149 3.05205,1.655666 2.97936,3.327595 -0.10668,2.453623 -2.5062,4.090702 -4.83662,3.869294 -3.10609,-0.295102 -5.13729,-3.359003 -4.75924,-6.345646 0.47575,-3.758385 4.21278,-6.187847 7.85468,-5.649169 4.41082,0.652412 7.24068,5.06707 6.5391,9.363697 -0.82679,5.063425 -5.92168,8.294958 -10.87272,7.429044 -5.71617,-0.999733 -9.35018,-6.776516 -8.31898,-12.381747 1.17171,-6.36902 7.6315,-10.406072 13.89077,-9.208919 7.02196,1.343024 11.46245,8.48659 10.09886,15.399797 -1.51385,7.67497 -9.34177,12.519188 -16.90883,10.988794"
       transform="matrix(0.26458333,0,0,0.26458333,-76.62162,29.918921)" />
    <path
       sodipodi:type="spiral"
       style="fill:none;fill-rule:evenodd;stroke:#000000;stroke-width:0.264583"
       id="path1073"
       sodipodi:cx="175.51123"
       sodipodi:cy="32.502079"
       sodipodi:expansion="1"
       sodipodi:revolution="3"
       sodipodi:radius="24.131004"
       sodipodi:argument="-21.46723"
       sodipodi:t0="0"
       d="m 175.51123,32.502079 c -1.0476,-0.60528 0.29906,-1.710771 1.00602,-1.741183 1.91581,-0.08242 2.82638,2.156084 2.47635,3.753214 -0.62612,2.856893 -3.91731,4.052691 -6.50042,3.211519 -3.79081,-1.234453 -5.30696,-5.699396 -3.94668,-9.247613 1.81303,-4.729214 7.48849,-6.572644 11.99481,-4.681854 5.67074,2.379366 7.84412,9.280831 5.41702,14.742011 -2.93955,6.614221 -11.07498,9.118947 -17.48921,6.15219 -7.55895,-3.49622 -10.39586,-12.870248 -6.88736,-20.236409 4.05071,-8.504526 14.66627,-11.674174 22.98361,-7.622526 9.45069,4.60374 12.95346,16.462816 8.35769,25.730808 -5.15575,10.397286 -18.25974,14.233463 -28.478,9.092861 -11.3442,-5.707043 -15.514,-20.056974 -9.82803,-31.225206"
       transform="matrix(0.26458333,0,0,0.26458333,-72.567566,46.257987)" />
    <path
       sodipodi:type="spiral"
       style="fill:none;fill-rule:evenodd;stroke:#000000;stroke-width:0.264583"
       id="path1075"
       sodipodi:cx="244.69423"
       sodipodi:cy="111.90002"
       sodipodi:expansion="1"
       sodipodi:revolution="3"
       sodipodi:radius="12.909305"
       sodipodi:argument="-21.33326"
       sodipodi:t0="0"
       d="m 244.69423,111.90002 c -0.51216,-0.39576 0.28079,-0.88564 0.65778,-0.85125 1.02161,0.0932 1.34441,1.34506 1.04471,2.16681 -0.53609,1.46991 -2.36644,1.86872 -3.67583,1.23817 -1.92158,-0.92535 -2.40636,-3.40088 -1.43164,-5.18486 1.29915,-2.37775 4.43986,-2.94955 6.69388,-1.6251 2.83646,1.66669 3.49559,5.48096 1.81857,8.20291 -2.0311,3.29664 -6.52327,4.04326 -9.71193,2.01203 -3.75774,-2.39373 -4.59197,-7.56631 -2.2055,-11.22096 2.75528,-4.21943 8.60986,-5.14135 12.72998,-2.39896 4.68155,3.11609 5.69123,9.65376 2.59243,14.23901 -3.4764,5.14396 -10.69791,6.24145 -15.74804,2.78589 -5.6066,-3.83633 -6.79193,-11.74225 -2.97935,-17.25706"
       transform="matrix(0.26458333,0,0,0.26458333,-86.69533,10.631452)" />
    <path
       sodipodi:type="spiral"
       style="fill:none;fill-rule:evenodd;stroke:#000000;stroke-width:0.264583"
       id="path1077"
       sodipodi:cx="327.34238"
       sodipodi:cy="213.5851"
       sodipodi:expansion="1"
       sodipodi:revolution="3"
       sodipodi:radius="22.982441"
       sodipodi:argument="-21.849251"
       sodipodi:t0="0"
       d="m 327.34238,213.5851 c -1.14072,-0.16296 -0.34313,-1.61807 0.27085,-1.89596 1.66383,-0.75305 3.26333,0.90192 3.52106,2.43766 0.46101,2.74708 -2.023,4.97241 -4.60447,5.14616 -3.78841,0.25499 -6.7136,-3.15257 -6.77126,-6.77127 -0.0769,-4.82315 4.2843,-8.46736 8.93808,-8.39636 5.8563,0.0893 10.2274,5.41683 10.02146,11.10488 -0.24942,6.88899 -6.54977,11.99104 -13.27169,11.64657 -7.92154,-0.40595 -13.75693,-7.68297 -13.27167,-15.4385 0.56025,-8.95406 8.81633,-15.52431 17.60531,-14.89677 9.98659,0.71305 17.29275,9.94981 16.52187,19.77211 -0.8648,11.01914 -11.08338,19.06195 -21.93892,18.14698 -12.0517,-1.0158 -20.83173,-12.21702 -19.77208,-24.10573"
       transform="matrix(0.26458333,0,0,0.26458333,-109.914,35.201476)" />
    <path
       sodipodi:type="spiral"
       style="fill:none;fill-rule:evenodd;stroke:#000000;stroke-width:0.264583"
       id="path1079"
       sodipodi:cx="175.51123"
       sodipodi:cy="225.19298"
       sodipodi:expansion="1"
       sodipodi:revolution="3"
       sodipodi:radius="16.468477"
       sodipodi:argument="-17.65403"
       sodipodi:t0="0"
       d="m 175.51123,225.19298 c 0.30264,0.76824 -0.88626,0.78697 -1.27687,0.50301 -1.05851,-0.76954 -0.59438,-2.35213 0.27086,-3.05675 1.5477,-1.26039 3.81381,-0.50161 4.83661,1.04471 1.50101,2.26931 0.41493,5.29853 -1.81857,6.6165 -2.9769,1.75664 -6.79182,0.33136 -8.39637,-2.59243 -2.01915,-3.6793 -0.24951,-8.28932 3.36629,-10.17625 4.37923,-2.28532 9.7892,-0.16868 11.95612,4.14015 2.55365,5.07782 0.0885,11.29057 -4.91401,13.736 -5.77559,2.82334 -12.79293,0.009 -15.51587,-5.68787 -3.09398,-6.47285 0.0707,-14.29599 6.46173,-17.29575 7.16974,-3.36527 15.79956,0.14998 19.07563,7.23559 3.63705,7.86638 -0.22907,17.30351 -8.00946,20.8555"
       transform="matrix(0.26458333,0,0,0.26458333,-36.94103,58.543)" />
    <path
       sodipodi:type="spiral"
       style="fill:none;fill-rule:evenodd;stroke:#000000;stroke-width:0.264583"
       id="path1081"
       sodipodi:cx="131.40126"
       sodipodi:cy="243.30128"
       sodipodi:expansion="1"
       sodipodi:revolution="3"
       sodipodi:radius="32.910763"
       sodipodi:argument="-21.705097"
       sodipodi:t0="0"
       d="m 131.40126,243.30128 c -1.58304,-0.4656 -0.1534,-2.36362 0.77386,-2.63112 2.51281,-0.72491 4.43907,1.94946 4.48838,4.17884 0.0882,3.98784 -3.88976,6.63046 -7.58382,6.34565 -5.42118,-0.41797 -8.8656,-5.84873 -8.2029,-10.9888 0.88327,-6.85091 7.81331,-11.11813 14.39377,-10.06017 8.28085,1.33134 13.37939,9.78034 11.91744,17.79876 -1.77063,9.71138 -11.74869,15.64565 -21.20374,13.77469 -11.14245,-2.20485 -17.91505,-13.71785 -15.63196,-24.60872 2.63592,-12.57394 15.68756,-20.18654 28.0137,-17.48921 14.00575,3.06487 22.4595,17.65765 19.34648,31.41867 -3.49234,15.4378 -19.62803,24.73352 -34.82366,21.20374 C 106.01878,268.32489 95.88047,250.645 99.827809,234.01498"
       transform="matrix(0.26458333,0,0,0.26458333,-99.103192,54.243245)" />
    <path
       sodipodi:type="spiral"
       style="fill:none;fill-rule:evenodd;stroke:#000000;stroke-width:0.264583"
       id="path1083"
       sodipodi:cx="70.575943"
       sodipodi:cy="218.22826"
       sodipodi:expansion="1"
       sodipodi:revolution="3"
       sodipodi:radius="9.4016705"
       sodipodi:argument="-18.275251"
       sodipodi:t0="0"
       d="m 70.575943,218.22826 c 0.395761,0.25608 -0.149937,0.65981 -0.425622,0.65778 -0.747091,-0.006 -1.05748,-0.89443 -0.889939,-1.50903 0.299692,-1.09937 1.603809,-1.50009 2.592428,-1.12209 1.450838,0.55473 1.953183,2.32185 1.354254,3.67583 -0.798278,1.80463 -3.042857,2.41057 -4.759232,1.58641 -2.159883,-1.03712 -2.870155,-3.76524 -1.818571,-5.84264 1.27361,-2.51601 4.488378,-3.331 6.926038,-2.05073 2.872698,1.50876 3.792641,5.212 2.282886,8.00944 -1.743071,3.22976 -5.935943,4.25481 -9.092842,2.51505 -3.58707,-1.97683 -4.717347,-6.66011 -2.747203,-10.17625 2.210205,-3.94457 7.384441,-5.18015 11.259648,-2.97936 4.302214,2.4433 5.643163,8.1089 3.211518,12.34305"
       transform="matrix(0.26458333,0,0,0.26458333,-70.110563,31.884523)" />
    <path
       sodipodi:type="spiral"
       style="fill:none;fill-rule:evenodd;stroke:#000000;stroke-width:0.264583"
       id="path1085"
       sodipodi:cx="255.37349"
       sodipodi:cy="273.01746"
       sodipodi:expansion="1"
       sodipodi:revolution="3"
       sodipodi:radius="19.490191"
       sodipodi:argument="-21.775064"
       sodipodi:t0="0"
       d="m 255.37349,273.01746 c -0.95448,-0.20952 -0.18848,-1.39 0.34823,-1.58642 1.45447,-0.53228 2.70316,0.96789 2.82459,2.28289 0.21722,2.35222 -2.02342,4.07807 -4.21753,4.06276 -3.21994,-0.0225 -5.47963,-3.08817 -5.30094,-6.15217 0.23817,-4.08385 4.15552,-6.89168 8.08683,-6.53912 4.94714,0.44366 8.30898,5.22394 7.77729,10.02147 -0.64395,5.81044 -6.29295,9.7293 -11.95612,9.01547 -6.67384,-0.84124 -11.15151,-7.3623 -10.25364,-13.89077 1.03662,-7.53736 8.43189,-12.57497 15.82541,-11.49182 8.40098,1.23076 13.99932,9.50165 12.72999,17.76006 -1.42399,9.26468 -10.57152,15.42431 -19.6947,13.96817 -10.12845,-1.61659 -16.84978,-11.6415 -15.20635,-21.62935"
       transform="matrix(0.26458333,0,0,0.26458333,-76.49877,40.975432)" />
    <path
       sodipodi:type="spiral"
       style="fill:none;fill-rule:evenodd;stroke:#000000;stroke-width:0.264583"
       id="path1087"
       sodipodi:cx="173.65398"
       sodipodi:cy="334.77142"
       sodipodi:expansion="1"
       sodipodi:revolution="3"
       sodipodi:radius="54.243488"
       sodipodi:argument="-19.513601"
       sodipodi:t0="0"
       d="m 173.65398,334.77142 c 2.14176,-1.67616 3.3161,2.0601 2.78589,3.55976 -1.43685,4.06397 -6.86906,4.08298 -9.9054,2.01202 -5.43131,-3.70446 -5.16115,-11.5712 -1.23816,-16.25104 5.75713,-6.86785 16.34032,-6.28009 22.59668,-0.4643 8.33874,7.75154 7.41694,21.13365 -0.30956,28.94233 -9.72302,9.82643 -25.9386,8.56316 -35.28798,-1.08343 -11.32334,-11.68331 -9.71482,-30.75012 1.8573,-41.63361 13.63734,-12.82582 35.56575,-10.86992 47.97926,2.63116 14.33188,15.58752 12.02728,40.38411 -3.40503,54.3249 -17.53516,15.84041 -45.2044,13.18625 -60.67054,-4.17889 -17.35068,-19.48106 -14.34638,-50.02609 4.95275,-67.01619 21.42569,-18.86223 54.84883,-15.50737 73.36183,5.72662"
       transform="matrix(0.26458333,0,0,0.26458333,-80.921374,26.601968)" />
    <path
       sodipodi:type="spiral"
       style="fill:none;fill-rule:evenodd;stroke:#000000;stroke-width:0.264583"
       id="path1089"
       sodipodi:cx="296.69757"
       sodipodi:cy="315.7345"
       sodipodi:expansion="1"
       sodipodi:revolution="3"
       sodipodi:radius="41.177738"
       sodipodi:argument="-18.33041"
       sodipodi:t0="0"
       d="m 296.69757,315.7345 c 1.79256,1.02432 -0.49638,2.9217 -1.70249,2.97935 -3.26849,0.15624 -4.84051,-3.65613 -4.25622,-6.38433 1.04514,-4.88012 6.6515,-6.94744 11.06618,-5.5331 6.47871,2.07561 9.10225,9.68226 6.80996,15.74803 -3.05525,8.08473 -12.72487,11.27659 -20.42988,8.08684 -9.69596,-4.01398 -13.46084,-15.77298 -9.3637,-25.11173 4.96219,-11.31048 18.82413,-15.65082 29.79358,-10.64057 12.9271,5.90441 17.84437,21.87719 11.91743,34.47542 -6.84288,14.54516 -24.93151,20.04032 -39.15726,13.19431 -16.16421,-7.77888 -22.23794,-27.98674 -14.47118,-43.83912 8.71314,-17.78397 31.04261,-24.43677 48.52096,-15.74804 19.40429,9.64614 26.63652,34.09897 17.02491,53.20281"
       transform="matrix(0.26458333,0,0,0.26458333,-74.901718,7.3144981)" />
    <path
       sodipodi:type="spiral"
       style="fill:none;fill-rule:evenodd;stroke:#000000;stroke-width:0.264583"
       id="path1091"
       sodipodi:cx="89.14856"
       sodipodi:cy="290.19714"
       sodipodi:expansion="1"
       sodipodi:revolution="3"
       sodipodi:radius="18.572617"
       sodipodi:argument="-15.707963"
       sodipodi:t0="0"
       d="m 89.14856,290.19714 c -0.931202,0 -0.459422,-1.25524 0,-1.54771 1.245005,-0.7926 2.713739,0.34858 3.095436,1.54771 0.682765,2.14498 -1.050118,4.20913 -3.095438,4.64316 -3.001589,0.63695 -5.731174,-1.75479 -6.190871,-4.64316 -0.612703,-3.84974 2.459739,-7.26352 6.190875,-7.73859 4.695254,-0.59781 8.800993,3.16462 9.286306,7.7386 0.587779,5.5397 -3.869411,10.34138 -9.286311,10.83402 -6.38363,0.58056 -11.883598,-4.57415 -12.381742,-10.83403 -0.575126,-7.22728 5.27885,-13.42703 12.381748,-13.92946 8.070765,-0.57089 14.971327,5.98353 15.477177,13.92947 0.56749,8.91414 -6.688185,16.51624 -15.477185,17.02489 -9.757457,0.56471 -18.061617,-7.39283 -18.572612,-17.0249"
       transform="matrix(0.26458333,0,0,0.26458333,-76.62162,29.918921)" />
    <path
       sodipodi:type="spiral"
       style="fill:none;fill-rule:evenodd;stroke:#000000;stroke-width:0.264583"
       id="path1093"
       sodipodi:cx="26.465979"
       sodipodi:cy="258.15936"
       sodipodi:expansion="1"
       sodipodi:revolution="3"
       sodipodi:radius="25.571095"
       sodipodi:argument="-19.907963"
       sodipodi:t0="0"
       d="m 26.465979,258.15936 c 0.628561,-1.11744 1.816399,0.29598 1.857261,1.04471 0.110736,2.02901 -2.250073,3.0212 -3.946681,2.66982 -3.034834,-0.62854 -4.34212,-4.1013 -3.482366,-6.84866 1.261725,-4.03185 5.974289,-5.69292 9.750624,-4.29491 5.033262,1.86332 7.055911,7.85456 5.10747,12.65259 -2.451914,6.03783 -9.738207,8.42508 -15.554567,5.92002 -7.044391,-3.03396 -9.797808,-11.62372 -6.732573,-18.45654 3.612273,-8.05223 13.510405,-11.17277 21.358509,-7.54512 9.060947,4.18826 12.549222,15.39786 8.357678,24.26048 -4.762698,10.07027 -17.285871,13.92671 -27.162452,9.17023 C 4.9388504,271.39592 0.71391561,257.5577 6.0360998,246.66756 11.944733,234.57743 27.099086,229.98377 39.002495,235.87222"
       transform="matrix(0.26458333,0,0,0.26458333,-76.62162,29.918921)" />
    <path
       sodipodi:type="spiral"
       style="fill:none;fill-rule:evenodd;stroke:#000000;stroke-width:0.264583"
       id="path1095"
       sodipodi:cx="22.751455"
       sodipodi:cy="103.54234"
       sodipodi:expansion="1"
       sodipodi:revolution="3"
       sodipodi:radius="15.159739"
       sodipodi:argument="-17.977419"
       sodipodi:t0="0"
       d="m 22.751455,103.54234 c 0.488881,0.582 -0.543329,0.94614 -0.967324,0.81255 -1.148999,-0.36201 -1.206848,-1.87909 -0.657779,-2.7472 0.982157,-1.55283 3.182015,-1.55346 4.527076,-0.503 1.973931,1.54159 1.912122,4.50325 0.348233,6.30695 -2.084417,2.40405 -5.831067,2.27601 -8.086827,0.19346 -2.838643,-2.62068 -2.642635,-7.16204 -0.03869,-9.866702 3.15373,-3.275703 8.494806,-3.010841 11.646579,0.116085 3.714255,3.684977 3.380043,9.828677 -0.270858,13.426457 -4.215109,4.15377 -11.163293,3.74991 -15.20633,-0.42563 -4.5939546,-4.74452 -4.1202385,-12.498433 0.580403,-16.986209 5.27341,-5.034606 13.833947,-4.490906 18.766082,0.735176 5.475604,5.801943 4.861825,15.169753 -0.889949,20.545953"
       transform="matrix(0.26458333,0,0,0.26458333,-76.62162,29.918921)" />
    <path
       sodipodi:type="spiral"
       style="fill:none;fill-rule:evenodd;stroke:#000000;stroke-width:0.264583"
       id="path1097"
       sodipodi:cx="315.27017"
       sodipodi:cy="94.256035"
       sodipodi:expansion="1"
       sodipodi:revolution="3"
       sodipodi:radius="16.747568"
       sodipodi:argument="-16.473757"
       sodipodi:t0="0"
       d="m 315.27017,94.256035 c -0.60528,0.582001 -1.08315,-0.528767 -0.96732,-1.006016 0.31388,-1.293315 1.98179,-1.46951 2.97935,-0.928633 1.78441,0.967502 1.94813,3.392252 0.88995,4.952697 -1.55294,2.290016 -4.82201,2.441375 -6.92604,0.85125 -2.80435,-2.119387 -2.94088,-6.258626 -0.81256,-8.899379 2.67828,-3.323117 7.69853,-3.443628 10.87272,-0.773866 3.84437,3.233439 3.94825,9.140276 0.73517,12.846062 -3.7865,4.36713 -10.58317,4.45406 -14.8194,0.69648 -4.89088,-4.338272 -4.96065,-12.026848 -0.65779,-16.79274 4.88919,-5.415309 13.47106,-5.467799 18.76608,-0.6191 5.94022,5.439508 5.97535,14.915664 0.58041,20.73942 -5.9894,6.46548 -16.36056,6.48319 -22.71276,0.54172"
       transform="matrix(0.26458333,0,0,0.26458333,-73.427517,15.054056)" />
    <path
       sodipodi:type="spiral"
       style="fill:none;fill-rule:evenodd;stroke:#000000;stroke-width:0.264583"
       id="path1099"
       sodipodi:cx="21.358509"
       sodipodi:cy="156.00998"
       sodipodi:expansion="1"
       sodipodi:revolution="3"
       sodipodi:radius="13.851861"
       sodipodi:argument="-17.969206"
       sodipodi:t0="0"
       d="m 21.358509,156.00998 c 0.442321,0.53544 -0.503538,0.86041 -0.889938,0.73517 -1.047119,-0.3394 -1.088591,-1.72598 -0.580394,-2.51505 0.909046,-1.41145 2.919052,-1.39551 4.140146,-0.42562 1.792005,1.42336 1.713304,4.12895 0.27085,5.76525 -1.922565,2.18093 -5.344904,2.03583 -7.390354,0.11608 -2.573991,-2.41581 -2.360819,-6.56376 0.03869,-9.01546 2.906133,-2.96933 7.784265,-2.68724 10.640562,0.19347 3.366048,3.39482 3.014574,9.00579 -0.348238,12.26566 -3.882501,3.76366 -10.227999,3.34251 -13.89077,-0.50301 -4.1618745,-4.36952 -3.6708535,-11.45068 0.657783,-15.51587 4.856075,-4.56053 12.673724,-3.99951 17.140978,0.81255 4.959498,5.34231 4.328391,13.89703 -0.967328,18.76609"
       transform="matrix(0.26458333,0,0,0.26458333,-76.62162,29.918921)" />
    <path
       sodipodi:type="spiral"
       style="fill:none;fill-rule:evenodd;stroke:#000000;stroke-width:0.264583"
       id="path1101"
       sodipodi:cx="333.8428"
       sodipodi:cy="114.68591"
       sodipodi:expansion="1"
       sodipodi:revolution="3"
       sodipodi:radius="8.6367664"
       sodipodi:argument="-18.216806"
       sodipodi:t0="0"
       d="m 333.8428,114.68591 c 0.3492,0.25608 -0.1729,0.59706 -0.42562,0.5804 -0.68484,-0.0452 -0.92179,-0.877 -0.73516,-1.43164 0.33383,-0.99213 1.5513,-1.28964 2.43765,-0.88994 1.30076,0.58658 1.66662,2.23412 1.04471,3.44367 -0.82891,1.61215 -2.91987,2.0474 -4.44969,1.19948 -1.92512,-1.06701 -2.4301,-3.607 -1.35425,-5.4557 1.303,-2.23903 4.29491,-2.81393 6.46172,-1.50903 2.55352,1.53779 3.19846,4.9833 1.6638,7.46775 -1.77183,2.86839 -5.67201,3.58345 -8.47376,1.81856 -3.18353,-2.00538 -3.96878,-6.36094 -1.97334,-9.47978 2.23859,-3.49886 7.05004,-4.35433 10.4858,-2.1281 3.81433,2.47154 4.74007,7.73926 2.28287,11.49181"
       transform="matrix(0.26458333,0,0,0.26458333,-74.901718,25.004916)" />
    <path
       sodipodi:type="spiral"
       style="fill:none;fill-rule:evenodd;stroke:#000000;stroke-width:0.264583"
       id="path1103"
       sodipodi:cx="32.966396"
       sodipodi:cy="190.36932"
       sodipodi:expansion="1"
       sodipodi:revolution="3"
       sodipodi:radius="3.5361209"
       sodipodi:argument="-17.683651"
       sodipodi:t0="0"
       d="m 32.966396,190.36932 c 0.06984,0.16296 -0.18521,0.17455 -0.27085,0.11608 -0.23208,-0.15843 -0.142529,-0.50105 0.03869,-0.65778 0.324163,-0.28035 0.815355,-0.13191 1.044709,0.19347 0.336587,0.4775 0.12275,1.13456 -0.348237,1.43164 -0.627751,0.39595 -1.455597,0.11431 -1.818568,-0.50301 -0.456762,-0.77684 -0.106267,-1.77752 0.657781,-2.2055 0.925364,-0.51834 2.099948,-0.0985 2.592427,0.81255 0.580371,1.0736 0.09079,2.42269 -0.967325,2.97936 -1.221639,0.64269 -2.745644,0.0832 -3.366286,-1.1221 -0.705213,-1.36956 -0.07573,-3.06874 1.276869,-3.75321 1.517414,-0.76787 3.391955,-0.0683 4.140145,1.43164 0.830633,1.6652 0.06087,3.71524 -1.586413,4.52707"
       transform="matrix(0.26458333,0,0,0.26458333,-76.62162,29.918921)" />
    <path
       sodipodi:type="spiral"
       style="fill:none;fill-rule:evenodd;stroke:#000000;stroke-width:0.264583"
       id="path1105"
       sodipodi:cx="342.20047"
       sodipodi:cy="144.86641"
       sodipodi:expansion="1"
       sodipodi:revolution="3"
       sodipodi:radius="13.149229"
       sodipodi:argument="-18.114117"
       sodipodi:t0="0"
       d="m 342.20047,144.86641 c 0.48888,0.44232 -0.35504,0.87723 -0.73517,0.81255 -1.03011,-0.17526 -1.25913,-1.47203 -0.88993,-2.28288 0.6604,-1.45043 2.55064,-1.71099 3.8306,-0.96733 1.87839,1.09135 2.17534,3.64357 1.04471,5.37832 -1.50695,2.31215 -4.74154,2.64498 -6.92604,1.1221 -2.74897,-1.91639 -3.11733,-5.84189 -1.19948,-8.47375 2.32277,-3.18754 6.94359,-3.59127 10.02147,-1.27688 3.62717,2.72743 4.06617,8.04614 1.35426,11.56919 -3.13101,4.06751 -9.14923,4.54175 -13.11691,1.43165 -4.50833,-3.53389 -5.01778,-10.25273 -1.50903,-14.66463 3.93628,-4.94948 11.3565,-5.49414 16.21234,-1.58642 5.39091,4.33832 5.97077,12.4605 1.66381,17.76007"
       transform="matrix(0.26458333,0,0,0.26458333,-75.024568,32.375923)" />
  </g>
</svg>
